<?xml version="1.0" standalone="no"?>
<svg xmlns="http://www.w3.org/2000/svg" xmlns:xlink="http://www.w3.org/1999/xlink" height="1080px" width="1920px">
  <defs>
    <pattern id="doodad" width="28.58" height="33" viewBox="0 0 69.2820323027551 80" patternUnits="userSpaceOnUse" patternTransform="rotate(100)">
      <rect width="100%" height="100%" fill="rgba(42, 50, 101,0)"/>
      <path d="M56.3 52.5L55.43 53L54.56 52.5L54.56 51.5L55.43 51L56.3 51.5z" stroke-linejoin="miter" fill="rgba(26, 32, 44,1)"/>
      <path d="M35.51 64.5L34.64 65L33.77 64.5L33.77 63.5L34.64 63L35.51 63.5z" stroke-linejoin="miter" fill="rgba(26, 32, 44,1)"/>
      <path d="M14.73 52.5L13.86 53L12.99 52.5L12.99 51.5L13.86 51L14.73 51.5z" stroke-linejoin="miter" fill="rgba(26, 32, 44,1)"/>
      <path d="M14.73 28.5L13.86 29L12.99 28.5L12.99 27.5L13.86 27L14.73 27.5z" stroke-linejoin="miter" fill="rgba(26, 32, 44,1)"/>
      <path d="M35.51 16.5L34.64 17L33.77 16.5L33.77 15.5L34.64 15L35.51 15.5z" stroke-linejoin="miter" fill="rgba(26, 32, 44,1)"/>
      <path d="M56.3 28.5L55.43 29L54.56 28.5L54.56 27.5L55.43 27L56.3 27.5z" stroke-linejoin="miter" fill="rgba(26, 32, 44,1)"/>
      <path d="M38.11 42L34.64 44L31.18 42L31.18 38L34.64 36L38.11 38z" stroke-linejoin="miter" fill="rgba(236, 201, 75,1)"/>
    </pattern>
  </defs>
  <rect fill="url(#doodad)" height="200%" width="200%"/>
</svg>
